<?xml version="1.0" standalone="no"?>
<svg version="1.0" xmlns="http://www.w3.org/2000/svg"
 width="40" height="40" viewBox="375 113 778 778"
 preserveAspectRatio="xMidYMid meet">
<g transform="translate(0.000000,1024.000000) scale(0.100000,-0.100000)"
fill="#000000" stroke="none">
<path d="M7627 8721 c-4 -18 -7 -75 -7 -125 0 -51 -5 -184 -10 -296 -9 -181
-27 -655 -60 -1625 -6 -159 -15 -402 -20 -539 -6 -136 -10 -280 -10 -318 l0
-71 -47 44 c-27 25 -142 123 -258 219 -115 95 -259 215 -320 265 -60 51 -160
132 -221 181 -189 152 -554 454 -674 558 -63 55 -104 87 -90 70 14 -16 28 -31
32 -34 8 -6 414 -407 1065 -1053 199 -197 356 -360 350 -362 -7 -2 -100 -6
-207 -9 -394 -12 -822 -26 -1085 -36 -148 -6 -459 -17 -690 -25 -969 -33
-1104 -39 -1100 -45 2 -4 114 -10 247 -14 134 -4 353 -11 488 -16 135 -5 477
-17 760 -25 656 -19 1592 -53 1597 -58 2 -2 -345 -355 -871 -887 -226 -228
-463 -469 -526 -535 -109 -113 -111 -115 -32 -45 88 79 132 117 306 263 60 51
143 121 185 157 42 36 148 126 235 200 288 245 381 323 556 470 95 80 201 168
234 197 l61 52 6 -127 c4 -70 12 -302 18 -517 7 -214 25 -817 41 -1340 16
-522 32 -1080 36 -1240 4 -159 10 -308 13 -330 8 -43 9 6 41 1230 11 424 24
921 30 1105 21 699 30 969 36 1087 l6 122 158 -132 c86 -73 201 -168 255 -212
359 -295 778 -647 1072 -901 73 -63 135 -114 137 -114 2 0 -330 336 -739 748
-410 411 -744 747 -745 748 0 0 82 4 183 7 100 4 295 12 432 17 138 6 538 19
890 30 1147 35 1620 53 1628 60 4 4 -106 10 -245 14 -401 10 -2331 77 -2732
94 l-159 7 654 645 c360 355 699 690 754 744 55 54 80 82 55 62 -25 -21 -124
-104 -221 -184 -96 -81 -209 -174 -250 -208 -41 -33 -193 -158 -339 -278 -146
-119 -291 -238 -323 -264 -137 -110 -385 -318 -423 -354 l-42 -40 -6 113 c-3
63 -11 258 -16 434 -6 176 -15 437 -20 580 -5 143 -19 535 -30 870 -34 998
-35 1002 -43 966z"/>
</g>
</svg>
