<?xml version="1.0" encoding="UTF-8"?>
<svg version="1.1" xmlns="http://www.w3.org/2000/svg" width="1536" height="1024">
<path d="M0 0 C506.88 0 1013.76 0 1536 0 C1536 337.92 1536 675.84 1536 1024 C1029.12 1024 522.24 1024 0 1024 C0 686.08 0 348.16 0 0 Z " fill="#FDFDFD" transform="translate(0,0)"/>
<path d="M0 0 C0.33 0 0.66 0 1 0 C1.76245218 8.89847509 2.22358578 17.76846591 2.46484375 26.6953125 C2.52235637 28.66484749 2.5798738 30.63438235 2.63758945 32.6039114 C2.69799635 34.6811334 2.75702265 36.75839057 2.81567383 38.83566284 C3.02363312 46.18626331 3.24329036 53.53651704 3.46484375 60.88671875 C3.49815859 61.9949446 3.49815859 61.9949446 3.53214645 63.12555885 C3.93298293 76.40015194 4.44298755 89.66854004 5 102.9375 C5.63098218 117.9946898 6.13363189 133.0523316 6.53515625 148.1171875 C6.56845598 149.36525146 6.56845598 149.36525146 6.60242844 150.63852882 C6.82405825 158.97895545 7.03914569 167.3195263 7.24372196 175.66038895 C7.32069938 178.78071163 7.40002475 181.9009725 7.47964287 185.02122879 C7.53316064 187.15858186 7.58307522 189.29599772 7.63282776 191.43344116 C7.79001581 197.6003684 8.02236595 203.7366777 8.49560547 209.88793945 C9.12350318 218.10470573 9.3300075 226.31887111 9.53515625 234.5546875 C9.57829333 236.19378369 9.6217098 237.83287254 9.66539001 239.47195435 C9.77829349 243.73619853 9.88746276 248.00052998 9.99578857 252.26489258 C10.10751663 256.63629091 10.22286723 261.0075936 10.33789062 265.37890625 C10.56208998 273.91918253 10.78233475 282.4595547 11 291 C12.72918772 289.5966809 14.45672647 288.1913298 16.18359375 286.78515625 C17.14579834 286.00277588 18.10800293 285.22039551 19.09936523 284.41430664 C21.81811399 282.15139052 24.45191086 279.82372878 27.0625 277.4375 C30.9619491 273.89199151 34.96878202 270.55671687 39.10546875 267.29296875 C42.74096589 264.41302702 46.33976169 261.48938815 49.9375 258.5625 C50.63311035 257.99692383 51.3287207 257.43134766 52.04541016 256.84863281 C56.73857192 253.03095382 61.42300913 249.20275828 66.1015625 245.3671875 C68.32121949 243.55436791 70.54525368 241.74760155 72.7734375 239.9453125 C79.74006223 234.30746035 86.66097584 228.62907613 93.48339844 222.81738281 C97.45061121 219.44488026 101.48807742 216.17406176 105.56640625 212.9375 C113.70885704 206.45490675 121.7007995 199.78032773 129.73168945 193.16040039 C133.72870107 189.86646361 137.73377985 186.58301846 141.75 183.3125 C150.08525943 176.49966238 158.35702806 169.59014593 166.31640625 162.33984375 C168.11401242 160.90926621 169.91551657 159.95329767 172 159 C166.58879123 165.49345052 160.89493425 171.53027253 154.46704102 177.02856445 C149.49016921 181.37635348 144.8556977 186.03703594 140.20703125 190.73046875 C138.81805658 192.12522912 137.42907907 193.51998667 136.03993511 194.91457844 C133.62862319 197.33673319 131.22066684 199.76221897 128.8125 202.1875 C125.92357154 205.09687722 123.0340277 208.0056242 120.14054871 210.91047668 C118.34628689 212.71223607 116.55428516 214.51624973 114.7648468 216.32279968 C113.95017441 217.1407753 113.13550201 217.95875092 112.29614258 218.80151367 C111.22980339 219.87570808 111.22980339 219.87570808 110.141922 220.97160339 C107.86365781 223.12911583 105.45728642 225.0510812 103 227 C101.30311857 228.8494101 99.72614087 230.76529389 98.13671875 232.70703125 C96.39772179 234.57319435 94.70566176 236.11978515 92.76293945 237.75292969 C86.07247713 243.5772461 79.91252449 249.96476077 73.65625 256.24609375 C72.27784813 257.6263637 70.89922309 259.0064108 69.52038574 260.38624573 C65.91464527 263.9957807 62.31191967 267.60830999 58.70983887 271.22149658 C55.02454066 274.91707527 51.33636419 278.60977905 47.6484375 282.30273438 C40.42949074 289.53236428 33.21372951 296.76516456 26 304 C63.9651845 305.78506464 101.93449114 307.46567429 139.9296875 308.46484375 C141.02545357 308.49366827 141.02545357 308.49366827 142.14335632 308.5230751 C148.22301127 308.68259027 154.30271045 308.8404135 160.38243103 308.99740601 C185.69424109 309.65196029 210.98854259 310.54862663 236.28689957 311.59739685 C272.8482206 313.11158341 309.4186633 314.11264826 346 315 C346 315.66 346 316.32 346 317 C345.07328995 317.02870178 344.1465799 317.05740356 343.19178772 317.0869751 C330.81523502 317.4707331 318.43884114 317.85948328 306.0625 318.25 C304.52229816 318.29853245 304.52229816 318.29853245 302.95098114 318.34804535 C276.06037769 319.1959511 249.17173036 320.0869581 222.28515625 321.0546875 C221.04740763 321.09912994 219.809659 321.14357239 218.53440285 321.18936157 C206.38466176 321.62566606 194.23503936 322.06483516 182.08578396 322.51447392 C176.42447745 322.72339304 170.76305914 322.92911406 165.1015625 323.1328125 C164.00884851 323.17216982 162.91613453 323.21152714 161.790308 323.2520771 C143.47002918 323.9051456 125.14923603 324.3514623 106.81973267 324.64663696 C95.89017072 324.83153982 85.02798456 325.26243968 74.125 326.0625 C57.74076283 327.2343472 41.41546897 327.19936575 25 327 C25 327.66 25 328.32 25 329 C25.56855744 329.24351794 26.13711489 329.48703588 26.72290134 329.73793316 C29.42520426 331.23566664 31.250445 333.00466877 33.43357849 335.19306946 C34.31533752 336.07207916 35.19709656 336.95108887 36.10557556 337.85673523 C37.07495256 338.83319021 38.0442334 339.80974067 39.01342773 340.78637695 C40.03994507 341.8134586 41.06690333 342.84009972 42.0942688 343.86633301 C44.88183278 346.65332287 47.66318313 349.44644038 50.44347262 352.24068475 C53.35636005 355.16608563 56.27492249 358.08581351 59.19288635 361.00614929 C64.72278714 366.54226911 70.24757217 372.08346522 75.77053934 377.62650126 C82.03801644 383.91626524 88.3111093 390.20041522 94.58471382 396.48406661 C105.31383298 407.23056078 116.03877164 417.98121206 126.75889587 428.73667908 C127.64347473 429.62414825 128.52805359 430.51161743 129.43943787 431.42597961 C130.20393973 432.19307912 130.9684416 432.96017862 131.75611019 433.75052357 C133.39427885 435.39277078 135.03468238 437.03278954 136.67639256 438.67149639 C138.5947649 440.59391102 140.46830668 442.53833141 142.3125 444.53125 C142.90732178 445.17126953 143.50214355 445.81128906 144.11499023 446.47070312 C144.73704346 447.14037109 145.35909668 447.81003906 146 448.5 C152.83863131 455.83396266 159.8559374 462.96436331 167 470 C162.67821138 470 160.872421 467.35628807 157.9375 464.5 C153.33095114 460.12898065 148.65045215 456.02353609 143.64453125 452.109375 C140.44937761 449.56080341 137.34748565 446.91580256 134.25 444.25 C133.66001221 443.74243164 133.07002441 443.23486328 132.4621582 442.71191406 C130.02902631 440.6159405 127.59856358 438.51688327 125.16796875 436.41796875 C116.72084809 429.11338626 116.72084809 429.11338626 108.0625 422.0625 C103.84033554 418.73175815 99.79345384 415.23027217 95.75 411.6875 C90.28048835 406.89804526 84.68551641 402.33720266 78.93212891 397.89453125 C74.5010044 394.4518981 70.34712459 390.7700683 66.21484375 386.97265625 C63.67100504 384.7069798 61.00148709 382.71743819 58.25 380.71484375 C54.71818193 378.02305879 51.36644638 375.11956379 47.98901367 372.23876953 C44.52433813 369.28529198 41.03257963 366.37247716 37.5 363.5 C30.00272502 357.39476292 22.64331308 351.12609826 15.30371094 344.83276367 C14.68236267 344.30003342 14.0610144 343.76730316 13.4208374 343.21842957 C12.95196106 342.81634781 12.48308472 342.41426605 12 342 C10.09186942 379.31993947 8.61712696 416.64815848 7.5 454 C7.46940994 455.02240532 7.43881989 456.04481064 7.40730286 457.09819794 C6.57310444 485.11243725 5.86075311 513.12930671 5.21484375 541.1484375 C5.19034267 542.21059085 5.19034267 542.21059085 5.16534662 543.29420185 C4.82608086 558.01408798 4.49335613 572.7341045 4.17526054 587.45446396 C3.36335791 624.97980125 2.28616581 662.48834543 1 700 C0.67 700 0.34 700 0 700 C-1.04184789 695.69142099 -1.18436501 691.47525456 -1.24609375 687.06640625 C-1.27797453 685.39811159 -1.30987674 683.72981734 -1.34179688 682.06152344 C-1.35718506 681.1694519 -1.37257324 680.27738037 -1.38842773 679.35827637 C-1.47433611 674.46384995 -1.57821955 669.56982234 -1.68359375 664.67578125 C-1.70650482 663.61128754 -1.72941589 662.54679382 -1.75302124 661.45004272 C-2.05893988 647.73149963 -2.49325472 634.01692408 -2.93437576 620.3021965 C-2.99943777 618.26758192 -3.06335927 616.23293462 -3.12692261 614.19827271 C-3.24857021 610.32479763 -3.3737252 606.45145171 -3.5 602.578125 C-3.53541397 601.44404709 -3.57082794 600.30996918 -3.60731506 599.14152527 C-3.80843382 593.12798359 -4.10583788 587.12926886 -4.50439453 581.12573242 C-5.02359536 573.22436445 -5.2600387 565.32655172 -5.4296875 557.41015625 C-5.46447828 555.90536738 -5.4996161 554.4005865 -5.5350647 552.89581299 C-5.61102564 549.65555957 -5.68539651 546.41527539 -5.75854492 543.17495728 C-5.96177214 534.20494176 -6.1803122 525.23528846 -6.3984375 516.265625 C-6.42159279 515.31107737 -6.44474808 514.35652973 -6.46860504 513.37305641 C-7.02996731 490.28674012 -7.65749705 467.20232102 -8.30865479 444.11837769 C-8.43451393 439.65498342 -8.55865899 435.19154742 -8.68109131 430.72805786 C-9.50333592 400.80404012 -10.60460061 370.90288133 -12 341 C-12.42493744 341.36958832 -12.84987488 341.73917664 -13.28768921 342.1199646 C-15.2405997 343.81773063 -17.19451109 345.5143408 -19.1484375 347.2109375 C-19.81673584 347.79222412 -20.48503418 348.37351074 -21.17358398 348.97241211 C-25.80428114 352.99134744 -30.50256657 356.90444745 -35.265625 360.765625 C-40.01187007 364.64398526 -44.67200495 368.62412869 -49.34277344 372.59277344 C-52.05865757 374.89895436 -54.77954663 377.19921283 -57.5 379.5 C-58.58335804 380.41663747 -59.66669135 381.33330416 -60.75 382.25 C-67.25 387.75 -67.25 387.75 -68.87475586 389.12475586 C-69.95895238 390.04217797 -71.04309945 390.95965852 -72.12719727 391.87719727 C-74.82192311 394.15778544 -77.51747812 396.43737815 -80.21484375 398.71484375 C-85.80538046 403.43681581 -91.38244395 408.17381532 -96.9375 412.9375 C-97.51661133 413.43411133 -98.09572266 413.93072266 -98.69238281 414.44238281 C-101.66737437 416.99496847 -104.63968389 419.55062493 -107.609375 422.109375 C-112.83958195 426.61110917 -118.0763282 431.09146132 -123.4375 435.4375 C-128.54100968 439.57893422 -133.49509624 443.87768246 -138.44628906 448.19848633 C-142.13892519 451.41284801 -145.87362155 454.55408489 -149.6875 457.625 C-158.25427615 464.5703446 -166.29163579 472.11644569 -174 480 C-174.66 479.67 -175.32 479.34 -176 479 C-171.21484375 474.21484375 -166.4296875 469.4296875 -161.64453125 464.64453125 C-160.83234131 463.83153564 -160.02015137 463.01854004 -159.18334961 462.1809082 C-157.91407895 460.91305683 -156.64259474 459.64739929 -155.36547852 458.38745117 C-153.1995171 456.24972915 -151.18111066 454.08999942 -149.3125 451.6875 C-148.549375 450.800625 -147.78625 449.91375 -147 449 C-146.34 449 -145.68 449 -145 449 C-144.59478984 448.10723059 -144.59478984 448.10723059 -144.18139362 447.19642544 C-143.00673511 445.0125218 -141.84563324 443.59886992 -140.09770203 441.85719299 C-139.20830933 440.9636763 -139.20830933 440.9636763 -138.3009491 440.05210876 C-137.65209244 439.41044266 -137.00323578 438.76877655 -136.3347168 438.10766602 C-135.6499527 437.42260986 -134.9651886 436.73755371 -134.25967407 436.03173828 C-131.9942306 433.76768823 -129.72178145 431.51080837 -127.44921875 429.25390625 C-125.87178147 427.68020105 -124.29478662 426.10605226 -122.71821594 424.53147888 C-118.56361385 420.38451442 -114.40304591 416.24358575 -110.24121094 412.10388184 C-106.01725379 407.9003176 -101.79888585 403.69115308 -97.58007812 399.48242188 C-90.75903554 392.67896233 -83.93456376 385.87896545 -77.1056366 379.0834198 C-75.93003809 377.91347132 -74.75464049 376.74332091 -73.57948875 375.57292366 C-72.12832958 374.12779618 -70.67618887 372.6836545 -69.22395325 371.23960876 C-67.05795002 369.05835796 -64.9749929 366.81353342 -62.90087891 364.54516602 C-51.35959199 351.95547753 -39.11828489 340.02944116 -27 328 C-32.12140862 327.1707716 -37.13903541 326.81453109 -42.328125 326.71875 C-43.51084991 326.69113586 -43.51084991 326.69113586 -44.71746826 326.66296387 C-47.22824235 326.60470466 -49.73908593 326.55184635 -52.25 326.5 C-54.71805093 326.44770664 -57.18604444 326.39402366 -59.6539917 326.33703613 C-61.18033734 326.30191062 -62.70674366 326.26925054 -64.23321533 326.2401123 C-68.74251811 326.13779345 -73.23953655 325.93624769 -77.74267197 325.67825508 C-92.65371102 324.83262084 -107.58121232 324.43692986 -122.50818825 323.98751521 C-126.65618594 323.86209628 -130.80410278 323.73405887 -134.95202637 323.60621643 C-141.99964362 323.38924137 -149.0472944 323.17339142 -156.0949707 322.95834351 C-174.24059536 322.40442557 -192.3859669 321.84233005 -210.53125 321.27734375 C-211.42009951 321.24968406 -212.30894901 321.22202437 -213.22473335 321.19352651 C-242.98593494 320.26705003 -272.74464721 319.28802864 -302.5 318.1875 C-303.35680359 318.15583992 -304.21360718 318.12417984 -305.09637451 318.09156036 C-314.7311992 317.73505993 -324.3657867 317.37269999 -334 317 C-334.33 316.34 -334.66 315.68 -335 315 C-310.12327778 313.73909487 -285.26551185 312.7498872 -260.35888672 312.34204102 C-258.97271149 312.31758408 -258.97271149 312.31758408 -257.55853271 312.29263306 C-255.86429454 312.26316485 -254.16999723 312.23679475 -252.47564697 312.21469116 C-246.5244503 312.11111386 -240.61727399 311.69751895 -234.68252563 311.25422668 C-228.51487538 310.82843704 -222.34127567 310.59229124 -216.1640625 310.3515625 C-214.72078549 310.29398188 -213.27751272 310.23629501 -211.83424377 310.17851257 C-207.09797978 309.99006788 -202.36150163 309.80735695 -197.625 309.625 C-195.96432462 309.56066734 -194.30364957 309.49632603 -192.64297485 309.43197632 C-163.87036806 308.3204942 -135.09375812 307.33358377 -106.3144455 306.41313934 C-103.22734447 306.31378238 -100.14030836 306.21260032 -97.05328369 306.11090088 C-73.36093543 305.33311648 -49.70617481 304.77762785 -26 305 C-26 304.34 -26 303.68 -26 303 C-26.8353125 302.6596875 -26.8353125 302.6596875 -27.6875 302.3125 C-30.65868854 300.62614975 -32.60778832 298.44651746 -35 296 C-35.99776948 294.99956163 -36.99693919 294.0005183 -37.99731445 293.00268555 C-57.33243815 273.66756185 -76.66756185 254.33243815 -96.00268555 234.99731445 C-96.51411983 234.48651966 -97.02555412 233.97572487 -97.55248642 233.44945145 C-98.88882085 232.11132799 -100.21855154 230.76661833 -101.54766846 229.42132568 C-104.16745587 226.83466134 -106.86850296 224.36311929 -109.60058594 221.89550781 C-115.19375742 216.80432625 -120.58894872 211.53234002 -125.91364288 206.16152191 C-127.44329471 204.61875366 -128.97635821 203.07944167 -130.51019287 201.54083252 C-133.7596859 198.28009179 -137.00515115 195.01536144 -140.25 191.75 C-144.03192726 187.94427823 -147.815593 184.14031615 -151.603508 180.34055328 C-153.09880325 178.83887527 -154.59100821 177.33417552 -156.08306885 175.82928467 C-160.67991718 171.21596126 -165.29872451 166.72306698 -170.28997803 162.53619385 C-173.17333324 159.9459391 -175.55197294 156.99883314 -178 154 C-173.66649231 155.69294281 -170.73178602 158.89786789 -167.4375 162.0625 C-162.37405773 166.84657541 -157.21516164 171.39797613 -151.77734375 175.7578125 C-148.64146001 178.28945422 -145.56872546 180.88778287 -142.5 183.5 C-136.72504511 188.4060361 -130.87928674 193.21932451 -125 198 C-119.28710096 202.65770268 -113.59178643 207.33372337 -107.9375 212.0625 C-103.60499866 215.67938972 -99.23157649 219.23487249 -94.81640625 222.75 C-85.70427284 230.02959618 -76.66782639 237.39082796 -67.80249023 244.96923828 C-63.86531176 248.31538253 -59.82995857 251.51766499 -55.75 254.6875 C-51.07264021 258.32198226 -46.57492032 262.07052272 -42.1875 266.0546875 C-39.78345545 268.19256998 -37.31110538 270.22351482 -34.8125 272.25 C-30.32057779 275.89690714 -25.89488964 279.61234167 -21.5 283.375 C-20.60051636 284.14312012 -20.60051636 284.14312012 -19.68286133 284.92675781 C-17.02949931 287.2048473 -14.45092955 289.50627933 -12 292 C-11.18644525 272.13218216 -10.37864627 252.26414024 -9.57989502 232.39572144 C-9.51192804 230.70538307 -9.44395532 229.01504493 -9.37597656 227.32470703 C-9.3432024 226.50974951 -9.31042824 225.69479198 -9.27666092 224.85513878 C-9.08986744 220.21567497 -8.90107005 215.57630022 -8.70996094 210.93701172 C-8.4672692 205.0415732 -8.23021008 199.14593942 -8 193.25 C-7.96198273 192.27685852 -7.92396545 191.30371704 -7.88479614 190.30108643 C-7.25309412 173.87947066 -6.77552877 157.45451591 -6.31640625 141.02734375 C-6.2550469 138.83747803 -6.19366569 136.64761292 -6.13226318 134.45774841 C-6.10146667 133.35938062 -6.07067017 132.26101282 -6.03894043 131.12936115 C-5.88050546 125.48206341 -5.72174797 119.83477488 -5.5625 114.1875 C-5.53100105 113.07016354 -5.49950211 111.95282707 -5.46704865 110.80163193 C-4.69611734 83.54133439 -3.8837495 56.29341009 -2.375 29.0625 C-2.31265167 27.92896088 -2.25030334 26.79542175 -2.18606567 25.62753296 C-2.01290573 22.53384727 -1.83322957 19.44066717 -1.6484375 16.34765625 C-1.59750443 15.48292694 -1.54657135 14.61819763 -1.49409485 13.7272644 C-1.20113108 9.10497317 -0.721029 4.57558413 0 0 Z " fill="#070707" transform="translate(763,156)"/>
<path d="M0 0 C0.66 0.66 1.32 1.32 2 2 C1.21496094 2.71285156 0.42992187 3.42570313 -0.37890625 4.16015625 C-6.04749133 9.32268209 -11.63777611 14.51590739 -17 20 C-17.66 19.67 -18.32 19.34 -19 19 C-12.73 12.73 -6.46 6.46 0 0 Z " fill="#3A393A" transform="translate(606,616)"/>
<path d="M0 0 C0.66 0.33 1.32 0.66 2 1 C-2.62 5.62 -7.24 10.24 -12 15 C-12.33 14.01 -12.66 13.02 -13 12 C-8.71 8.04 -4.42 4.08 0 0 Z " fill="#3C3D3D" transform="translate(933,315)"/>
<path d="M0 0 C3.71045247 1.57780923 6.29906384 3.90703248 9.25 6.625 C10.14203125 7.44226563 11.0340625 8.25953125 11.953125 9.1015625 C12.96632813 10.04128906 12.96632813 10.04128906 14 11 C13.34 11.66 12.68 12.32 12 13 C9.99698146 11.0238076 7.99750133 9.04425526 6 7.0625 C5.42765625 6.49853516 4.8553125 5.93457031 4.265625 5.35351562 C2.82474495 3.92121224 1.41012857 2.46258871 0 1 C0 0.67 0 0.34 0 0 Z " fill="#6D6E6F" transform="translate(585,310)"/>
<path d="M0 0 C0 3 0 3 -1.3125 4.38671875 C-2.875 5.59114583 -4.4375 6.79557292 -6 8 C-6.66 7.34 -7.32 6.68 -8 6 C-5.36 4.02 -2.72 2.04 0 0 Z " fill="#161717" transform="translate(919,328)"/>
<path d="M0 0 C3.81684226 1.55500981 6.19195732 4.03595495 9 7 C6.62051228 6.82374165 5.29774151 6.30280227 3.62109375 4.59765625 C2.37884514 3.09350908 1.18623944 1.54870149 0 0 Z " fill="#161717" transform="translate(598,322)"/>
</svg>
