<svg width="40" height="40" viewBox="0 0 40 40" fill="none" xmlns="http://www.w3.org/2000/svg">
  <path d="M27.4627 12.5371L21.7957 19.9998L27.4627 27.4625L20 21.7955L12.5373 27.4625L18.2043 19.9998L12.5373 12.5371L20 18.2041L27.4627 12.5371Z" fill="#271D11"/>
  <path d="M40 20L20.8018 20.8018L20 40L19.1982 20.8018L0 20L19.1982 19.1982L20 0L20.8018 19.1982L40 20Z" fill="#271D11"/>
  <path d="M30.4837 20.0003C21.0377 20.5723 20.5736 21.0365 20 30.484C19.428 21.0381 18.9638 20.5739 9.5163 20.0003C18.9623 19.4283 19.4264 18.9641 20 9.5166C20.572 18.9626 21.0362 19.4267 30.4837 20.0003Z" fill="#271D11"/>
</svg>
